<svg xmlns="http://www.w3.org/2000/svg" viewBox="0 0 318 178"><path d="M 156,161 155,162 154,162 153,163 153,169 155,171 160,171 162,169 162,168 163,167 163,165 162,164 162,163 160,161 Z" fill="currentColor"/><path d="M 200,150 199,151 198,151 197,152 197,154 196,155 196,156 197,157 197,158 199,160 204,160 206,158 206,156 207,155 206,154 206,152 205,151 204,151 203,150 Z" fill="currentColor"/><path d="M 113,150 112,151 111,151 110,152 110,158 112,160 117,160 119,158 119,157 120,156 120,154 119,153 119,152 118,151 117,151 116,150 Z" fill="currentColor"/><path d="M 245,139 244,140 243,140 242,141 242,143 241,144 242,145 242,147 244,149 249,149 251,147 251,146 252,145 252,144 251,143 251,141 250,140 249,140 248,139 Z" fill="currentColor"/><path d="M 69,139 68,140 67,140 66,141 66,142 65,143 65,145 66,146 66,147 68,149 73,149 75,147 75,141 74,140 73,140 72,139 Z" fill="currentColor"/><path d="M 89,127 87,129 87,135 88,135 90,137 93,137 94,136 95,136 96,135 96,133 97,132 97,131 96,130 96,129 94,127 Z" fill="currentColor"/><path d="M 225,125 224,126 223,126 222,127 222,128 221,129 221,132 224,135 229,135 231,133 231,132 232,131 232,130 231,129 231,128 228,125 Z" fill="currentColor"/><path d="M 165,117 165,121 170,126 170,127 190,147 192,147 193,146 193,141 172,120 172,119 170,117 Z" fill="currentColor"/><path d="M 147,117 125,139 125,140 123,142 123,146 124,146 125,147 126,147 151,122 151,117 Z" fill="currentColor"/><path d="M 157,116 155,118 155,154 157,156 160,156 161,155 161,118 159,116 Z" fill="currentColor"/><path d="M 111,114 110,115 109,115 108,116 108,117 107,118 107,121 108,122 108,123 109,123 110,124 115,124 117,122 117,117 114,114 Z" fill="currentColor"/><path d="M 207,113 206,114 205,114 204,115 204,117 203,118 204,119 204,120 205,121 205,122 206,122 207,123 211,123 213,121 213,120 214,119 214,117 213,116 213,115 211,113 Z" fill="currentColor"/><path d="M 128,1 127,2 120,2 119,3 114,3 113,4 110,4 109,5 107,5 106,6 106,8 107,9 112,9 113,10 120,10 121,11 126,11 127,12 136,12 137,13 146,13 147,12 148,12 149,11 150,11 151,10 153,10 154,11 154,13 153,14 153,17 152,18 152,22 150,24 147,24 146,25 145,25 144,26 143,26 142,27 140,27 138,29 137,29 127,39 127,40 126,41 126,44 124,46 69,46 68,45 67,45 66,44 66,40 61,40 59,38 59,33 58,32 58,30 57,29 57,26 58,25 61,25 62,26 65,26 66,27 85,27 86,26 92,26 93,25 98,25 99,24 102,24 103,23 104,23 104,20 103,19 96,19 95,18 89,18 88,17 82,17 81,16 71,16 70,15 66,15 65,16 63,16 62,17 61,17 60,18 57,18 55,16 49,16 47,18 46,18 45,17 42,17 41,16 36,16 35,15 23,15 22,16 14,16 13,17 9,17 8,18 4,18 3,19 0,19 0,23 6,23 7,24 11,24 12,25 20,25 21,26 29,26 30,27 39,27 40,26 42,26 43,25 44,25 45,24 46,24 48,26 48,27 47,28 47,30 46,31 46,33 45,34 45,39 44,40 39,40 38,41 38,73 39,74 39,75 42,78 44,78 45,79 59,79 60,78 63,78 65,76 65,75 66,74 66,63 67,62 106,62 107,63 107,64 106,65 106,66 105,67 105,70 104,71 104,74 103,75 103,79 104,80 135,80 136,81 136,82 133,85 132,85 130,87 129,87 129,88 128,89 128,106 129,107 130,107 131,108 171,108 172,107 188,107 189,106 189,89 188,88 188,87 186,85 185,85 184,84 183,84 181,82 181,81 182,80 213,80 214,79 214,75 213,74 213,72 212,71 212,68 211,67 211,65 210,64 210,63 211,62 250,62 251,63 251,68 252,69 252,71 258,77 259,77 260,78 264,78 265,79 266,78 270,78 272,76 273,76 277,72 277,71 278,70 278,68 279,67 279,40 273,40 272,39 272,34 271,33 271,31 270,30 270,28 269,27 269,26 270,25 273,25 274,26 278,26 279,27 298,27 299,26 305,26 306,25 311,25 312,24 315,24 316,23 317,23 317,20 316,20 315,19 309,19 308,18 301,18 300,17 294,17 293,16 284,16 283,15 279,15 278,16 276,16 275,17 274,17 273,18 270,18 268,16 262,16 261,17 260,17 259,18 258,18 257,17 255,17 254,16 249,16 248,15 236,15 235,16 226,16 225,17 222,17 221,18 216,18 215,19 213,19 213,23 219,23 220,24 224,24 225,25 232,25 233,26 242,26 243,27 252,27 253,26 255,26 256,25 257,25 258,24 259,24 260,25 260,29 259,30 259,32 258,33 258,38 256,40 251,40 251,44 250,45 249,45 248,46 194,46 193,45 192,45 191,44 191,41 189,39 189,38 180,29 179,29 177,27 175,27 174,26 173,26 172,25 171,25 170,24 167,24 165,22 165,18 164,17 164,14 163,13 163,12 164,11 167,11 168,12 172,12 173,13 191,13 192,12 199,12 200,11 203,11 204,10 209,10 211,8 211,7 209,5 203,5 202,4 197,4 196,3 188,3 187,2 179,2 178,1 172,1 171,2 169,2 168,3 167,3 166,4 164,4 162,2 158,2 157,1 156,2 155,2 154,3 149,3 148,2 144,2 143,1 Z" fill="currentColor"/></svg>